<svg width="30" height="29" viewBox="0 0 30 29" fill="#fff" xmlns="http://www.w3.org/2000/svg">
<g filter="url(#filter0_d_29_278)">
<path d="M23.25 10.8141C22.7772 10.6065 22.2664 10.4996 21.75 10.5H8.25C7.73368 10.4995 7.22288 10.6063 6.75 10.8136C6.08166 11.1059 5.51294 11.5865 5.11336 12.1968C4.71377 12.8071 4.50064 13.5205 4.5 14.25V19.5C4.5 19.6989 4.57902 19.8897 4.71967 20.0303C4.86032 20.171 5.05109 20.25 5.25 20.25C5.44891 20.25 5.63968 20.171 5.78033 20.0303C5.92098 19.8897 6 19.6989 6 19.5V19.125C6.00122 19.0259 6.04112 18.9312 6.11118 18.8612C6.18124 18.7911 6.27592 18.7512 6.375 18.75H23.625C23.7241 18.7512 23.8188 18.7911 23.8888 18.8612C23.9589 18.9312 23.9988 19.0259 24 19.125V19.5C24 19.6989 24.079 19.8897 24.2197 20.0303C24.3603 20.171 24.5511 20.25 24.75 20.25C24.9489 20.25 25.1397 20.171 25.2803 20.0303C25.421 19.8897 25.5 19.6989 25.5 19.5V14.25C25.4993 13.5206 25.2861 12.8073 24.8865 12.1971C24.4869 11.5869 23.9183 11.1063 23.25 10.8141ZM20.625 3.75H9.375C8.67881 3.75 8.01113 4.02656 7.51884 4.51884C7.02656 5.01113 6.75 5.67881 6.75 6.375V9.75C6.75002 9.77906 6.75679 9.80771 6.76979 9.8337C6.78278 9.85969 6.80163 9.8823 6.82486 9.89976C6.84809 9.91721 6.87505 9.92903 6.90363 9.93428C6.93221 9.93953 6.96162 9.93806 6.98953 9.93C7.39896 9.81025 7.82341 9.74964 8.25 9.75H8.44828C8.49456 9.75029 8.53932 9.73346 8.57393 9.70274C8.60855 9.67202 8.63058 9.62958 8.63578 9.58359C8.67669 9.21712 8.85115 8.87856 9.12586 8.63256C9.40056 8.38656 9.75625 8.25037 10.125 8.25H12.75C13.119 8.25003 13.475 8.38606 13.75 8.63209C14.025 8.87812 14.1997 9.21688 14.2406 9.58359C14.2458 9.62958 14.2679 9.67202 14.3025 9.70274C14.3371 9.73346 14.3818 9.75029 14.4281 9.75H15.5747C15.621 9.75029 15.6657 9.73346 15.7003 9.70274C15.735 9.67202 15.757 9.62958 15.7622 9.58359C15.8031 9.21736 15.9773 8.87899 16.2517 8.63303C16.5261 8.38706 16.8815 8.25072 17.25 8.25H19.875C20.244 8.25003 20.6 8.38606 20.875 8.63209C21.15 8.87812 21.3247 9.21688 21.3656 9.58359C21.3708 9.62958 21.3929 9.67202 21.4275 9.70274C21.4621 9.73346 21.5068 9.75029 21.5531 9.75H21.75C22.1766 9.74979 22.6011 9.81057 23.0105 9.93047C23.0384 9.93854 23.0679 9.94 23.0965 9.93473C23.1251 9.92945 23.1521 9.91759 23.1753 9.90009C23.1986 9.88258 23.2174 9.8599 23.2304 9.83385C23.2433 9.8078 23.2501 9.7791 23.25 9.75V6.375C23.25 5.67881 22.9734 5.01113 22.4812 4.51884C21.9889 4.02656 21.3212 3.75 20.625 3.75Z" fill="black"/>
</g>
<defs>
<filter id="filter0_d_29_278" x="-1" y="0" width="32" height="32" filterUnits="userSpaceOnUse" color-interpolation-filters="sRGB">
<feFlood flood-opacity="0" result="BackgroundImageFix"/>
<feColorMatrix in="SourceAlpha" type="matrix" values="0 0 0 0 0 0 0 0 0 0 0 0 0 0 0 0 0 0 127 0" result="hardAlpha"/>
<feOffset dy="4"/>
<feGaussianBlur stdDeviation="2"/>
<feComposite in2="hardAlpha" operator="out"/>
<feColorMatrix type="matrix" values="0 0 0 0 0 0 0 0 0 0 0 0 0 0 0 0 0 0 0.25 0"/>
<feBlend mode="normal" in2="BackgroundImageFix" result="effect1_dropShadow_29_278"/>
<feBlend mode="normal" in="SourceGraphic" in2="effect1_dropShadow_29_278" result="shape"/>
</filter>
</defs>
</svg>
